<svg id="instagram" xmlns="http://www.w3.org/2000/svg" width="27" height="27" viewBox="0 0 27 27">
  <g id="Groupe_1" data-name="Groupe 1">
    <path id="Tracé_2" data-name="Tracé 2" d="M419.046,291.715a1.583,1.583,0,1,0,1.583,1.583A1.583,1.583,0,0,0,419.046,291.715Z" transform="translate(-398.398 -286.894)" fill="#fff"/>
    <path id="Tracé_3" data-name="Tracé 3" d="M415.853,293.1a6.649,6.649,0,1,0,6.649,6.65A6.658,6.658,0,0,0,415.853,293.1Zm0,10.908a4.259,4.259,0,1,1,4.258-4.258A4.263,4.263,0,0,1,415.853,304.008Z" transform="translate(-402.242 -286.249)" fill="#fff"/>
    <path id="Tracé_4" data-name="Tracé 4" d="M423.342,315.425H412.563a8.118,8.118,0,0,1-8.109-8.109v-10.78a8.119,8.119,0,0,1,8.109-8.111h10.779a8.12,8.12,0,0,1,8.111,8.111v10.78A8.119,8.119,0,0,1,423.342,315.425Zm-10.779-24.459a5.576,5.576,0,0,0-5.57,5.57v10.78a5.576,5.576,0,0,0,5.57,5.57h10.779a5.576,5.576,0,0,0,5.57-5.57v-10.78a5.576,5.576,0,0,0-5.57-5.57Z" transform="translate(-404.453 -288.425)" fill="#fff"/>
  </g>
</svg>
