<svg xmlns="http://www.w3.org/2000/svg" width="27" height="18.623" viewBox="0 0 27 18.623">
  <path id="Tracé_203" data-name="Tracé 203" d="M372.567,99.808a2.333,2.333,0,0,0-.065-.3c-.012-.046-.026-.093-.041-.138a2.584,2.584,0,0,0-2.446-1.759h.177a79.456,79.456,0,0,0-21.32,0h.178a2.585,2.585,0,0,0-2.447,1.759c-.015.046-.028.092-.042.138a2.5,2.5,0,0,0-.063.3,44.167,44.167,0,0,0,0,12.788,2.531,2.531,0,0,0,.063.3c.014.047.027.093.042.139a2.585,2.585,0,0,0,2.447,1.759h-.178a79.456,79.456,0,0,0,21.32,0h-.177a2.584,2.584,0,0,0,2.446-1.759c.015-.046.029-.092.041-.139a2.366,2.366,0,0,0,.065-.3,44.251,44.251,0,0,0,0-12.788Zm-9.037,6.971-5.451,3.96a.65.65,0,0,1-.385.127.679.679,0,0,1-.3-.071.662.662,0,0,1-.358-.586v-7.917a.655.655,0,0,1,1.042-.532l5.451,3.959a.656.656,0,0,1,0,1.062Z" transform="translate(-346.031 -96.891)" fill="#fff"/>
</svg>
