<svg id="pinterest" xmlns="http://www.w3.org/2000/svg" width="20.908" height="27" viewBox="0 0 20.908 27">
  <path id="Tracé_1" data-name="Tracé 1" d="M452.723,306.038c-.023.078-.044.144-.062.208-.991,3.886-1.1,4.749-2.12,6.553a20.3,20.3,0,0,1-1.638,2.449c-.069.088-.133.2-.27.173s-.161-.166-.177-.286a20.766,20.766,0,0,1-.214-3.557c.051-1.552.243-2.085,2.245-10.5a.579.579,0,0,0-.047-.352,5.931,5.931,0,0,1-.155-3.933c.907-2.872,4.162-3.092,4.73-.722.352,1.465-.576,3.382-1.288,6.216-.591,2.339,2.163,4,4.515,2.295,2.17-1.574,3.013-5.347,2.852-8.022-.315-5.331-6.161-6.483-9.87-4.767-4.253,1.967-5.22,7.238-3.3,9.646.245.308.432.494.352.8-.125.482-.233.969-.366,1.448a.513.513,0,0,1-.759.34,4.35,4.35,0,0,1-1.775-1.329c-1.631-2.019-2.1-6.013.059-9.393a11.283,11.283,0,0,1,10.887-4.8c4.843.551,7.906,3.86,8.479,7.616a12.68,12.68,0,0,1-2.329,8.91c-2.762,3.425-7.239,3.652-9.306,1.549A6.621,6.621,0,0,1,452.723,306.038Z" transform="translate(-443.98 -288.425)" fill="#fff" fill-rule="evenodd"/>
</svg>
