<svg id="Groupe_41" data-name="Groupe 41" xmlns="http://www.w3.org/2000/svg" xmlns:xlink="http://www.w3.org/1999/xlink" width="225.757" height="31.995" viewBox="0 0 225.757 31.995">
  <defs>
    <clipPath id="clip-path">
      <rect id="Rectangle_8" data-name="Rectangle 8" width="225.757" height="31.995" transform="translate(0 0)" fill="#fff"/>
    </clipPath>
  </defs>
  <g id="Groupe_38" data-name="Groupe 38" clip-path="url(#clip-path)">
    <path id="Tracé_213" data-name="Tracé 213" d="M0,16C0,8.547,5.687,3.111,13.354,3.111a12.45,12.45,0,0,1,9.575,3.924L20.589,9.3A9.334,9.334,0,0,0,13.5,6.315,9.518,9.518,0,0,0,3.6,16a9.518,9.518,0,0,0,9.9,9.683,9.367,9.367,0,0,0,7.091-3.024l2.34,2.268a12.5,12.5,0,0,1-9.611,3.96C5.687,28.885,0,23.449,0,16" fill="#fff"/>
    <path id="Tracé_214" data-name="Tracé 214" d="M55.727,16c0-7.379,5.687-12.887,13.427-12.887,7.667,0,13.354,5.472,13.354,12.887S76.821,28.885,69.154,28.885c-7.74,0-13.427-5.508-13.427-12.887m23.181,0a9.792,9.792,0,0,0-19.582,0,9.792,9.792,0,0,0,19.582,0" fill="#fff"/>
    <path id="Tracé_215" data-name="Tracé 215" d="M96.226,17.4l-4.607,4.68V28.6h-3.6V3.4h3.6V17.473L105.3,3.4h4.1L98.638,14.738,110.084,28.6h-4.211Z" fill="#fff"/>
    <path id="Tracé_216" data-name="Tracé 216" d="M140.978,28.6h-5.04a3.69,3.69,0,0,1-3.779-3.779V7.107a3.691,3.691,0,0,1,3.779-3.78h5.04a3.692,3.692,0,0,1,3.78,3.78V10.6h-3.6V6.819a.17.17,0,0,0-.18-.18h-5.04a.17.17,0,0,0-.179.18V25.177a.17.17,0,0,0,.179.18h5.04a.171.171,0,0,0,.18-.18V21.4h3.6v3.42a3.69,3.69,0,0,1-3.78,3.779" fill="#fff"/>
    <path id="Tracé_217" data-name="Tracé 217" d="M157.5,28.6l-2.7-10.259h-2.844V28.6h-3.6V3.4h8.82a3.609,3.609,0,0,1,3.779,3.779v7.379a3.538,3.538,0,0,1-2.808,3.672L161.317,28.6Zm-5.544-13.5h5.22a.17.17,0,0,0,.179-.18v-8.1a.17.17,0,0,0-.179-.18h-5.22Z" fill="#fff"/>
    <path id="Tracé_218" data-name="Tracé 218" d="M173.378,28.668h-5.04a3.609,3.609,0,0,1-3.779-3.779V3.4h3.6V25.177a.17.17,0,0,0,.18.179h5.04a.17.17,0,0,0,.18-.179V3.4h3.6v21.49a3.609,3.609,0,0,1-3.779,3.779" fill="#fff"/>
    <path id="Tracé_219" data-name="Tracé 219" d="M190.19,28.6,184.323,12l-.109-.468V28.6h-3.455V3.4h3.888l5.147,14.937.108.5V3.4h3.456V28.6Z" fill="#fff"/>
    <path id="Tracé_220" data-name="Tracé 220" d="M205.779,28.6h-5.04a3.69,3.69,0,0,1-3.779-3.779V7.107a3.691,3.691,0,0,1,3.779-3.78h5.04a3.691,3.691,0,0,1,3.779,3.78V10.6h-3.6V6.819a.171.171,0,0,0-.18-.18h-5.04a.171.171,0,0,0-.18.18V25.177a.171.171,0,0,0,.18.18h5.04a.171.171,0,0,0,.18-.18V21.4h3.6v3.42a3.69,3.69,0,0,1-3.779,3.779" fill="#fff"/>
    <path id="Tracé_221" data-name="Tracé 221" d="M222.158,28.6V16.9h-5.4V28.6h-3.6V3.4h3.6V13.658h5.4V3.4h3.6V28.6Z" fill="#fff"/>
    <path id="Tracé_222" data-name="Tracé 222" d="M124.369,2.484V4.427L120.517,3.24a2.4,2.4,0,1,1-2.3-3.24,3.4,3.4,0,0,1,1.331.288Z" fill="#88959f"/>
    <path id="Tracé_223" data-name="Tracé 223" d="M115.874,29.512V27.568l3.852,1.188a2.4,2.4,0,1,1,2.3,3.239,3.4,3.4,0,0,1-1.331-.288Z" fill="#88959f"/>
    <path id="Tracé_224" data-name="Tracé 224" d="M122.137,23.924V10.994a.159.159,0,0,0-.168-.168h-3.694a.159.159,0,0,0-.168.168v12.93h-3.023V8.139h2.956V9.617h.067c.369-1.042,1.108-1.545,2.586-1.545H122a2.971,2.971,0,0,1,3.156,3.191V23.924Z" fill="#fff"/>
    <path id="Tracé_225" data-name="Tracé 225" d="M48.1,25.227A13.051,13.051,0,0,1,31.262,26.6a1.167,1.167,0,0,1-.151-1.773l1.6-1.6a3.391,3.391,0,0,1,3.045-.93l1.518.3a3.874,3.874,0,0,0,3.25-.85l5.019-4.266a1.936,1.936,0,0,0,.115-2.845L40.243,9.215a1.934,1.934,0,0,0-2.843.116l-4.267,5.018a3.875,3.875,0,0,0-.849,3.251l.3,1.516a3.392,3.392,0,0,1-.929,3.045l-1.6,1.6a1.167,1.167,0,0,1-1.773-.15A13.05,13.05,0,1,1,48.1,25.227" fill="#88959f"/>
    <path id="Tracé_226" data-name="Tracé 226" d="M36.066,18.809a.616.616,0,0,1,0-.87l4.465-4.466a.616.616,0,1,1,.871.871l-4.466,4.465a.616.616,0,0,1-.87,0" fill="#88959f"/>
    <path id="Tracé_227" data-name="Tracé 227" d="M37.656,20.393l-.023-.024a.615.615,0,0,1,.046-.869l4.693-4.226a.616.616,0,0,1,.824.915L38.5,20.415a.616.616,0,0,1-.847-.022" fill="#88959f"/>
    <path id="Tracé_228" data-name="Tracé 228" d="M34.482,17.219a.616.616,0,0,1-.022-.847l4.226-4.693a.616.616,0,0,1,.915.824L35.375,17.2a.615.615,0,0,1-.869.046l-.024-.023" fill="#88959f"/>
  </g>
</svg>
